<?xml version="1.0" standalone="no"?><!DOCTYPE svg PUBLIC "-//W3C//DTD SVG 1.1//EN" "http://www.w3.org/Graphics/SVG/1.1/DTD/svg11.dtd"><svg class="icon" width="200px" height="160.00px" viewBox="0 0 1280 1024" version="1.1" xmlns="http://www.w3.org/2000/svg"><path fill="#808080" d="M342.8 348.6c6-22.2 28.8-35.4 49.4-29.4l207.6 55c52 14 82.8 67.4 69 119.4-14 52-67.4 82.8-119.4 68.8l-17.6-4.6-2.4-0.6 35.6 61.4 24-13.8c13.4-7.8 30.4-3.2 38 10 7.8 13.4 3.2 30.4-10.2 38.2l-96.4 55.6c-13.2 7.6-30.2 3.2-38-10.2-7.6-13.4-3.2-30.4 10.2-38l24.2-14-35.6-61.4c-0.2 0.8-0.4 1.6-0.6 2.2l-4.8 17.8c-15.6 52-67.2 82.8-119.2 68.8-52-15.6-82.8-67.4-69-119.2l55.2-206zM441.4 14.936c53.2-30.748 121.4-12.5 152.2 40.764l334 578.5c30.6 53.4 12.4 121.4-40.8 152.2L501 1009c-53.2 30.8-121.2 12.6-152-40.6L14.936 389.8c-30.748-53.4-12.5-121.4 40.764-152.2L441.4 14.936z m48 83.144L103.7 320.8c-7.34 4.2-9.86 13.6-5.62 21L432.2 920.4c4.2 7.2 13.6 9.8 20.8 3.8l385.8-221c7.4-4.2 9.8-13.6 5.6-21l-334-578.5c-4.2-7.34-13.6-9.86-21-5.62zM648.2 998l270.6-156.2c83.8-48.4 112.6-155.6 64.2-239.6L709.4 128.5c3.6-0.34 7-2.3 10.6-2.3h448c61.8 0 112 51.94 112 112V912c0 61.8-50.2 112-112 112H720c-27.2 0-52.4-9.8-71.8-27.8v1.8z m511.4-726.6c-28-23.6-69-19-93.8 6.4l-9.6 10.6-10-10.6c-25-25.4-66.4-30-93.4-6.4-31.4 27-33 74.8-5 103.8l97 100c6 6.4 16.4 6.4 23 0l96.2-100c28-29 26.6-76.8-4.4-103.8z" /></svg>